# xmcd
#
# Track frame offsets:
#	150
#	12411
#	26090
#	39546
#	51543
#	63691
#	77943
#	90853
#	102994
#	115305
#	127520
#	138305
#	149991
#	162543
#	175309
#	187144
#	199994
#	212210
#	224961
#	236217
#	248586
#	260060
#	271436
#	282365
#	292143
#
# Disc length: 4045 seconds
#
# Revision: 0
# Processed by: cddbd v1.5.2PL0 Copyright (c) Steve Scherf et al.
# Submitted via: EZCDAudioConverter 3.1.7.1
#
DISCID=a30fcb19
DTITLE=Earl Bostic - Flamingo [Rex] [CD2]
DYEAR=2008
DGENRE=Blues
TTITLE0=Moonglow
TTITLE1=Steamwhistle Jump
TTITLE2=Smoke Rings
TTITLE3=The Very Thought Of You
TTITLE4=Cracked Ice
TTITLE5=Linger Awhile
TTITLE6=Off Shore
TTITLE7=Sweet Lorranie
TTITLE8=Mambolino
TTITLE9=East Of The Sun
TTITLE10=Harlem Nocturne
TTITLE11=Mambostic
TTITLE12=What! No Pearls?
TTITLE13=Jungle Drums
TTITLE14=Melody Of Love
TTITLE15=Blue Skies
TTITLE16=Remember
TTITLE17=Dream
TTITLE18=When Your Lover Has Gone
TTITLE19=Don't You Do It
TTITLE20=Danube Waves
TTITLE21=Melancholy Serenade
TTITLE22=Cherry Bean
TTITLE23=Ubangi Stomp
TTITLE24=Cocktails For Two
EXTD=
EXTT0=
EXTT1=
EXTT2=
EXTT3=
EXTT4=
EXTT5=
EXTT6=
EXTT7=
EXTT8=
EXTT9=
EXTT10=
EXTT11=
EXTT12=
EXTT13=
EXTT14=
EXTT15=
EXTT16=
EXTT17=
EXTT18=
EXTT19=
EXTT20=
EXTT21=
EXTT22=
EXTT23=
EXTT24=
PLAYORDER=
